<svg viewBox="0 0 32 32" fill="none" xmlns="http://www.w3.org/2000/svg">
  <rect width="32" height="32" rx="9" fill="#ccf24d"/>
  <path d="M11 21.5C11 22.5 12.2 23.5 14.2 23.5C16.4 23.5 17.6 22.3 17.6 20.7C17.6 19.1 16.5 18.4 14.6 17.9L13.6 17.6C12.8 17.4 12.4 17.1 12.4 16.5C12.4 15.9 12.9 15.5 13.7 15.5C14.5 15.5 15 15.9 15.1 16.6H17.4C17.3 14.9 16 13.7 13.8 13.7C11.7 13.7 10.3 14.9 10.3 16.6C10.3 18.1 11.3 18.9 13 19.3L14 19.6C15 19.8 15.4 20.1 15.4 20.7C15.4 21.3 14.9 21.7 14.1 21.7C13.2 21.7 12.6 21.3 12.5 20.5L11 21.5Z" fill="#161614"/>
  <path d="M19.5 9L22.5 12L19.5 15" stroke="#161614" stroke-width="1.6" stroke-linecap="round" stroke-linejoin="round"/>
</svg>
